<svg width="23" height="19" viewBox="0 0 23 19" fill="none" xmlns="http://www.w3.org/2000/svg">
<path d="M2.11381 17.365C1.75453 17.2222 1.43379 16.9971 1.17742 16.7077C0.921057 16.4184 0.736224 16.0728 0.637809 15.699C0.204717 13.7539 0.0112792 11.7631 0.0618091 9.77098C0.011573 7.78125 0.204671 5.79285 0.636809 3.84998C0.733297 3.47666 0.916014 3.13119 1.17028 2.84133C1.42454 2.55146 1.74325 2.32529 2.10081 2.18098C5.48781 0.886976 10.8348 0.849976 11.4338 0.849976H11.4718C12.0998 0.849976 17.4468 0.886976 20.8218 2.17598C21.1809 2.31892 21.5014 2.54412 21.7575 2.83347C22.0137 3.12282 22.1984 3.46825 22.2968 3.84198C22.7299 5.78709 22.9233 7.77788 22.8728 9.76998C22.9233 11.761 22.7302 13.7508 22.2978 15.695C22.2007 16.0675 22.0177 16.4122 21.7635 16.7013C21.5093 16.9904 21.1909 17.216 20.8338 17.36C17.4468 18.654 12.0998 18.691 11.5008 18.691C10.8358 18.692 5.48781 18.65 2.11381 17.365ZM2.69481 3.69898C2.57739 3.74789 2.47293 3.82338 2.38964 3.91951C2.30635 4.01564 2.2465 4.12979 2.21481 4.25298C1.81684 6.06423 1.64087 7.91719 1.69081 9.77098C1.64085 11.6258 1.81715 13.4798 2.21581 15.292C2.24829 15.4169 2.30963 15.5325 2.39491 15.6294C2.48019 15.7263 2.58702 15.8019 2.70681 15.85C5.84981 17.05 11.2068 17.065 11.4338 17.065C11.7268 17.065 17.0848 17.051 20.2398 15.846C20.3572 15.7971 20.4617 15.7216 20.545 15.6254C20.6283 15.5293 20.6881 15.4152 20.7198 15.292C21.1178 13.4804 21.2938 11.6271 21.2438 9.77298C21.2939 7.91748 21.1176 6.0628 20.7188 4.24998C20.6858 4.12562 20.6243 4.01068 20.539 3.91433C20.4538 3.81797 20.3472 3.74286 20.2278 3.69498C17.0848 2.49498 11.7278 2.47998 11.5008 2.47998H11.4338C11.2078 2.47898 5.84981 2.49298 2.69481 3.69898ZM9.45381 13.75C9.32392 13.6804 9.21533 13.5768 9.13961 13.4504C9.06389 13.324 9.02387 13.1793 9.02381 13.032V6.51198C9.02362 6.36451 9.0635 6.21976 9.13919 6.09319C9.21487 5.96662 9.32351 5.86299 9.45352 5.79337C9.58352 5.72375 9.72999 5.69075 9.87728 5.69791C10.0246 5.70506 10.1672 5.75209 10.2898 5.83398L15.1778 9.09298C15.2894 9.16729 15.3809 9.26802 15.4442 9.38622C15.5075 9.50441 15.5406 9.6364 15.5406 9.77048C15.5406 9.90455 15.5075 10.0365 15.4442 10.1547C15.3809 10.2729 15.2894 10.3737 15.1778 10.448L10.2898 13.707C10.1671 13.7886 10.0246 13.8354 9.87734 13.8425C9.73012 13.8495 9.58375 13.8165 9.45381 13.747V13.75ZM10.6538 11.51L13.2538 9.77298L10.6538 8.03698V11.51Z" fill="#005CFF"/>
</svg>
